<svg id="visual" viewBox="0 0 900 600" width="900" height="600" xmlns="http://www.w3.org/2000/svg" xmlns:xlink="http://www.w3.org/1999/xlink" version="1.1"><path d="M0 85L13.7 83C27.3 81 54.7 77 82 80C109.3 83 136.7 93 163.8 88C191 83 218 63 245.2 60C272.3 57 299.7 71 327 82C354.3 93 381.7 101 409 97C436.3 93 463.7 77 491 69C518.3 61 545.7 61 573 64C600.3 67 627.7 73 654.8 83C682 93 709 107 736.2 110C763.3 113 790.7 105 818 102C845.3 99 872.7 101 886.3 102L900 103L900 0L886.3 0C872.7 0 845.3 0 818 0C790.7 0 763.3 0 736.2 0C709 0 682 0 654.8 0C627.7 0 600.3 0 573 0C545.7 0 518.3 0 491 0C463.7 0 436.3 0 409 0C381.7 0 354.3 0 327 0C299.7 0 272.3 0 245.2 0C218 0 191 0 163.8 0C136.7 0 109.3 0 82 0C54.7 0 27.3 0 13.7 0L0 0Z" fill="#6198ff"></path><path d="M0 175L13.7 178C27.3 181 54.7 187 82 190C109.3 193 136.7 193 163.8 200C191 207 218 221 245.2 225C272.3 229 299.7 223 327 230C354.3 237 381.7 257 409 279C436.3 301 463.7 325 491 321C518.3 317 545.7 285 573 256C600.3 227 627.7 201 654.8 210C682 219 709 263 736.2 282C763.3 301 790.7 295 818 296C845.3 297 872.7 305 886.3 309L900 313L900 101L886.3 100C872.7 99 845.3 97 818 100C790.7 103 763.3 111 736.2 108C709 105 682 91 654.8 81C627.7 71 600.3 65 573 62C545.7 59 518.3 59 491 67C463.7 75 436.3 91 409 95C381.7 99 354.3 91 327 80C299.7 69 272.3 55 245.2 58C218 61 191 81 163.8 86C136.7 91 109.3 81 82 78C54.7 75 27.3 79 13.7 81L0 83Z" fill="#3c80ff"></path><path d="M0 385L13.7 390C27.3 395 54.7 405 82 413C109.3 421 136.7 427 163.8 420C191 413 218 393 245.2 384C272.3 375 299.7 377 327 387C354.3 397 381.7 415 409 431C436.3 447 463.7 461 491 469C518.3 477 545.7 479 573 471C600.3 463 627.7 445 654.8 433C682 421 709 415 736.2 412C763.3 409 790.7 409 818 414C845.3 419 872.7 429 886.3 434L900 439L900 311L886.3 307C872.7 303 845.3 295 818 294C790.7 293 763.3 299 736.2 280C709 261 682 217 654.8 208C627.7 199 600.3 225 573 254C545.7 283 518.3 315 491 319C463.7 323 436.3 299 409 277C381.7 255 354.3 235 327 228C299.7 221 272.3 227 245.2 223C218 219 191 205 163.8 198C136.7 191 109.3 191 82 188C54.7 185 27.3 179 13.7 176L0 173Z" fill="#0066ff"></path><path d="M0 499L13.7 502C27.3 505 54.7 511 82 516C109.3 521 136.7 525 163.8 528C191 531 218 533 245.2 534C272.3 535 299.7 535 327 531C354.3 527 381.7 519 409 523C436.3 527 463.7 543 491 547C518.3 551 545.7 543 573 533C600.3 523 627.7 511 654.8 515C682 519 709 539 736.2 548C763.3 557 790.7 555 818 555C845.3 555 872.7 557 886.3 558L900 559L900 437L886.3 432C872.7 427 845.3 417 818 412C790.7 407 763.3 407 736.2 410C709 413 682 419 654.8 431C627.7 443 600.3 461 573 469C545.7 477 518.3 475 491 467C463.7 459 436.3 445 409 429C381.7 413 354.3 395 327 385C299.7 375 272.3 373 245.2 382C218 391 191 411 163.8 418C136.7 425 109.3 419 82 411C54.7 403 27.3 393 13.7 388L0 383Z" fill="#0059dd"></path><path d="M0 601L13.7 601C27.3 601 54.7 601 82 601C109.3 601 136.7 601 163.8 601C191 601 218 601 245.2 601C272.3 601 299.7 601 327 601C354.3 601 381.7 601 409 601C436.3 601 463.7 601 491 601C518.3 601 545.7 601 573 601C600.3 601 627.7 601 654.8 601C682 601 709 601 736.2 601C763.3 601 790.7 601 818 601C845.3 601 872.7 601 886.3 601L900 601L900 557L886.3 556C872.7 555 845.3 553 818 553C790.7 553 763.3 555 736.2 546C709 537 682 517 654.8 513C627.7 509 600.3 521 573 531C545.7 541 518.3 549 491 545C463.7 541 436.3 525 409 521C381.7 517 354.3 525 327 529C299.7 533 272.3 533 245.2 532C218 531 191 529 163.8 526C136.7 523 109.3 519 82 514C54.7 509 27.3 503 13.7 500L0 497Z" fill="#004cbb"></path></svg>